<?xml version="1.0" encoding="UTF-8"?>
<svg id="Layer_2" data-name="Layer 2" xmlns="http://www.w3.org/2000/svg" viewBox="0 0 230.67 202.79">
  <defs>
    <style>
      .cls-1 {
        fill: rgb(255, 255, 255);
      }
    </style>
  </defs>
  <g id="Layer_1-2" data-name="Layer 1">
    <path class="cls-1" d="M230.67,18.52l-6.03,71.57s-2.73,13.22-17.68,25.15c-14.94,11.93-43.9,8.34-43.9,8.34l-7.03-.46c5.03.44,24.04,2.69,36.81,12.6,11.8,9.16,16.53,19.55,8.73,35.86-5.61,11.75-28.56,25.87-28.56,25.87,0,0-13.26,12.5-31.58-1.3-18.32-13.79-26.09-44.62-26.09-44.62l.35-.25h-.9l.55.4s-7.77,30.82-26.09,44.62c-18.32,13.8-31.58,1.29-31.58,1.29,0,0-22.95-14.11-28.56-25.86-7.8-16.31-3.07-26.7,8.73-35.86,12.54-9.74,31.11-12.08,36.53-12.58l-6.75.44s-28.96,3.59-43.9-8.34c-14.95-11.93-17.68-25.15-17.68-25.15L0,18.67S.87,2,13.08.42c12.22-1.58,22.71,4.31,22.71,4.31,0,0,32.92,11,79.55,90.11v-.15C161.97,15.58,194.89,4.58,194.89,4.58c0,0,10.49-5.89,22.71-4.31,12.21,1.58,13.07,18.25,13.07,18.25Z"/>
  </g>
</svg>