<?xml version="1.0" encoding="UTF-8"?>
<svg id="Layer_2" data-name="Layer 2" xmlns="http://www.w3.org/2000/svg" viewBox="0 0 225 219.17">
  <g id="Layer_1-2" data-name="Layer 1">
    <path d="M225,103.22v19c-1.57,5.59-1.93,11.53-3.29,17.21-8.11,33.76-34.73,65.39-67.39,77.55-3.39,1.26-12.17,4.7-13.25-1.26-1.51-8.3.67-21.85.04-31.04-.3-4.39-1.35-11.97-3.15-15.85-1.2-2.58-3.56-3.94-3.88-6.6,16.5-1.78,35.83-8.91,43.84-24.62,6.79-13.3,8.73-34.94,2.99-48.75-1.55-3.74-7.38-10.53-7.71-12.37-.56-3.08,1.5-5.14,1.76-7.84.78-8.12-1.12-14.62-3.01-22.32-7.11-.65-14.56,2.39-20.93,5.35-2.61,1.21-8.52,6.04-10.57,6.28-3.04.35-17.26-3.53-22.81-3.79-3.73-.17-8.31-.18-12.03.06-4.9.31-18.06,4.05-20.87,3.73-1.79-.21-10.13-6.12-13.35-7.5-2.87-1.23-16.19-5.82-18.15-4.13-2.14,7.49-3.78,14.39-3.02,22.31.26,2.7,2.32,4.76,1.76,7.84-.33,1.84-6.16,8.63-7.71,12.37-6.57,15.78-3.45,41.86,7.45,55.29,9.72,11.97,24.96,15.81,39.38,18.58-3.17,4.23-5.7,8.92-6.19,14.3-4.49,1.7-10.41,3.58-15.26,3.24-14.16-.99-16.72-17.15-27.83-22.21-2.54-1.16-11.95-3.97-11.54.52.92,4.15,5.44,4.89,7.78,7.25,10.56,10.64,7.53,23.47,25.67,27.31,6.95,1.47,13.44.53,20.38.1v17.5c0,1.27,1.53,1.84.1,5.07-2.7,6.11-10.24,2.41-14.77.61-31.98-12.71-58.05-43.45-65.97-76.97-1.34-5.68-1.74-11.61-3.29-17.21.4-6.5-.55-13.58,0-20C4.81,47.72,51.3,3.24,105.55.18c60.71-3.43,114.49,42,119.45,103.04Z" fill="#fff"/>
  </g>
</svg>