<?xml version="1.0" encoding="UTF-8"?>
<svg id="Layer_2" data-name="Layer 2" xmlns="http://www.w3.org/2000/svg" viewBox="0 0 225 225">
  <g id="Layer_1-2" data-name="Layer 1">
    <g>
      <path d="M112.5,0C50.37,0,0,50.37,0,112.5s50.37,112.5,112.5,112.5,112.5-50.37,112.5-112.5S174.63,0,112.5,0ZM76.1,164.03h-13.94v-94.42h13.94v94.42ZM69.13,59.18c-5.04,0-9.13-4.09-9.13-9.13s4.09-9.13,9.13-9.13,9.12,4.09,9.12,9.13-4.08,9.13-9.12,9.13ZM139.26,164.01v.02h-43.33v-94.42h43.33v.02c24.12.6,43.51,21.5,43.51,47.19s-19.39,46.59-43.51,47.19Z" fill="#fff"/>
      <path d="M139.26,69.61v.02c-.36-.02-.72-.02-1.08-.02h1.08Z" fill="#fff" stroke="#000" stroke-miterlimit="10"/>
      <path d="M139.26,164.01v.02h-1.08c.36,0,.72,0,1.08-.02Z" fill="#fff" stroke="#000" stroke-miterlimit="10"/>
      <path d="M139.26,69.61v.02c-.36-.02-.72-.02-1.08-.02h1.08Z" fill="#fff" stroke="#000" stroke-miterlimit="10"/>
      <path d="M139.26,164.01v.02h-1.08c.36,0,.72,0,1.08-.02Z" fill="#fff" stroke="#000" stroke-miterlimit="10"/>
      <path d="M168.25,116.82c0,19.45-15.25,35.21-34.06,35.21h-24.32v-70.42h24.32c18.81,0,34.06,15.77,34.06,35.21Z" fill="#fff"/>
    </g>
  </g>
</svg>