<?xml version="1.0" encoding="UTF-8"?>
<svg id="Layer_2" data-name="Layer 2" xmlns="http://www.w3.org/2000/svg" viewBox="0 0 225 223.97">
  <defs>
    <style>
      .cls-1 {
        fill: #ffffff7b;
      }

      .cls-2 {
        fill: rgba(116, 116, 116, 0.65);
      }

      .cls-3 {
        fill: #ffffff;
      }

      .cls-4 {
        fill: #ffffff;
      }
    </style>
  </defs>
  <g id="Layer_1-2" data-name="Layer 1">
    <g>
      <path class="cls-1" d="M112.5,0v93.34c-26.38,0-49.1,15.63-59.41,38.14h-1.08L0,89.22,112.5,0Z"/>
      <path class="cls-2" d="M225,89.22l-52.27,42.26h-.82c-10.31-22.51-33.04-38.14-59.41-38.14V0l112.5,89.22Z"/>
      <path class="cls-4" d="M171.91,131.48H53.09c10.31-22.51,33.03-38.14,59.41-38.14s49.1,15.63,59.41,38.14Z"/>
      <path class="cls-3" d="M177.82,158.66c0,36.07-29.25,65.31-65.32,65.31s-65.32-29.24-65.32-65.31c0-9.7,2.11-18.91,5.91-27.18h118.82c3.8,8.27,5.91,17.48,5.91,27.18Z"/>
    </g>
  </g>
</svg>