<?xml version="1.0" encoding="UTF-8"?>
<svg id="Layer_2" data-name="Layer 2" xmlns="http://www.w3.org/2000/svg" viewBox="0 0 225 225">
  <g id="Layer_1-2" data-name="Layer 1">
    <path d="M202,0c12.68,2.43,20.57,10.32,23,23v179c-2.43,12.68-10.32,20.57-23,23H23c-12.68-2.43-20.57-10.32-23-23V23C2.13,11.13,10.71,1.56,23,0h179ZM46.74,31.24c-4.25.73-8.94,4.03-11.56,7.43-13.42,17.34,6.65,40.96,25.54,30.54,19.7-10.87,9.96-42.09-13.97-37.96ZM194,194v-77.5c0-1.11-2.36-9.36-2.96-11.04-10.41-28.94-51.64-31.65-68.54-7.47l-.5-13h-33v109h33v-62.5c0-.64,1.8-6.68,2.25-7.75,5.56-12.92,26.47-15.19,32.95-2.46.64,1.25,2.8,8.25,2.8,9.2v63.5h34ZM68,85h-34v109h34v-109Z" fill="#fff"/>
  </g>
</svg>