<?xml version="1.0" encoding="UTF-8"?>
<svg id="Layer_2" data-name="Layer 2" xmlns="http://www.w3.org/2000/svg" viewBox="0 0 170.3 170.3">
  <g id="Layer_1-2" data-name="Layer 1">
    <g>
      <path d="M85.15,0C38.12,0,0,38.12,0,85.15s38.12,85.15,85.15,85.15,85.15-38.12,85.15-85.15S132.17,0,85.15,0ZM49.15,47.98h72.65c2.11,0,4.12.45,5.93,1.25l-42.2,40.47-44.55-39.23c2.33-1.57,5.14-2.49,8.17-2.49ZM34.49,109.63v-46.99c0-3.12.97-6.01,2.64-8.38l31.23,27.5-31.04,36.51c-1.78-2.42-2.83-5.41-2.83-8.64ZM121.8,124.29H49.15c-2.92,0-5.63-.85-7.91-2.32l31.17-36.65,9.22,8.12-.08.07,1.49,1.55c1.23,1.29,3.28,1.33,4.57.1l10.15-9.73,32.21,36.38c-2.33,1.57-5.15,2.48-8.17,2.48ZM136.46,109.63c0,3.12-.97,6.01-2.64,8.39l-32.17-36.32,30.6-29.34c2.61,2.64,4.21,6.27,4.21,10.28v46.99Z" fill="#fff"/>
      <path d="M129.97,121.81c-2.33,1.57-5.15,2.48-8.17,2.48H49.15c-2.92,0-5.63-.85-7.91-2.32l31.17-36.65,9.22,8.12-.08.07,1.49,1.55c1.23,1.29,3.28,1.33,4.57.1l10.15-9.73,32.21,36.38Z" fill="none"/>
      <path d="M68.36,81.76l-31.04,36.51c-1.78-2.42-2.83-5.41-2.83-8.64v-46.99c0-3.12.97-6.01,2.64-8.38l31.23,27.5Z" fill="none"/>
      <path d="M127.73,49.23l-42.2,40.47-44.55-39.23c2.33-1.57,5.14-2.49,8.17-2.49h72.65c2.11,0,4.12.45,5.93,1.25Z" fill="none"/>
      <path d="M136.46,62.64v46.99c0,3.12-.97,6.01-2.64,8.39l-32.17-36.32,30.6-29.34c2.61,2.64,4.21,6.27,4.21,10.28Z" fill="none"/>
    </g>
  </g>
</svg>